<?xml version="1.0" standalone="no"?>
<!DOCTYPE svg PUBLIC "-//W3C//DTD SVG 20010904//EN"
 "http://www.w3.org/TR/2001/REC-SVG-20010904/DTD/svg10.dtd">
<svg version="1.0" xmlns="http://www.w3.org/2000/svg"
 width="1051.000000pt" height="1051.000000pt" viewBox="0 0 1051.000000 1051.000000"
 preserveAspectRatio="xMidYMid meet">
<metadata>
Created by potrace 1.11, written by Peter Selinger 2001-2013
</metadata>
<g transform="translate(0.000000,1051.000000) scale(0.100000,-0.100000)"
fill="#000000" stroke="none">
<path d="M4862 10035 c2 -5 13 -28 23 -50 30 -66 141 -286 174 -345 16 -30 37
-68 45 -85 59 -125 81 -167 110 -220 19 -33 42 -76 52 -95 10 -19 22 -38 27
-41 5 -3 9 -10 9 -15 2 -23 11 -44 19 -44 5 0 9 -4 9 -9 0 -5 30 -63 66 -128
37 -65 82 -147 102 -183 19 -36 43 -78 52 -95 10 -16 34 -61 55 -100 21 -38
51 -95 68 -125 16 -30 42 -77 57 -105 106 -194 388 -755 415 -827 10 -27 21
-48 25 -48 4 0 10 -10 13 -22 3 -13 26 -72 52 -133 72 -172 159 -403 190 -505
7 -25 25 -83 40 -130 27 -90 74 -278 79 -320 2 -14 9 -38 15 -53 6 -16 9 -33
5 -38 -3 -5 0 -9 6 -9 6 0 9 -4 6 -9 -3 -4 -1 -35 4 -67 19 -126 31 -220 34
-274 5 -75 6 -83 13 -77 10 11 12 484 2 552 -5 33 -11 92 -14 130 -3 39 -8 77
-11 86 -2 10 -7 30 -9 45 -2 16 -7 40 -10 54 -3 14 -9 39 -11 55 -3 17 -15 64
-26 105 -11 41 -21 84 -23 95 -1 11 -7 31 -13 45 -5 14 -10 28 -10 33 -2 15
-95 302 -103 317 -5 8 -31 74 -59 145 -28 72 -64 157 -79 190 -16 33 -57 118
-90 188 -34 70 -61 132 -61 137 0 6 -4 10 -10 10 -5 0 -10 4 -10 10 0 5 -15
33 -33 62 -19 29 -52 90 -75 135 -51 100 -266 469 -281 483 -4 3 -11 14 -17
25 -33 58 -125 202 -138 218 -9 9 -16 20 -16 23 0 6 -42 72 -131 207 -33 49
-59 93 -59 98 0 5 -3 9 -8 9 -4 0 -23 26 -41 58 -19 31 -37 59 -41 62 -3 3
-19 28 -35 55 -30 52 -124 186 -137 195 -4 3 -11 14 -15 25 -9 23 -180 285
-196 300 -7 7 -8 7 -5 0z"/>
<path d="M5315 9450 c-3 -5 1 -10 9 -10 9 0 16 -5 16 -11 0 -6 21 -32 48 -59
64 -65 185 -198 214 -235 12 -16 32 -39 43 -51 53 -56 165 -192 165 -201 0 -5
9 -15 20 -23 11 -8 20 -19 20 -24 0 -5 8 -16 18 -25 10 -9 29 -32 42 -51 13
-19 30 -41 36 -47 7 -7 22 -29 35 -50 13 -21 29 -44 36 -52 18 -18 223 -326
223 -335 0 -4 9 -19 20 -34 23 -31 40 -63 129 -240 107 -212 193 -410 206
-472 2 -8 9 -28 15 -45 6 -16 13 -37 15 -45 2 -8 11 -35 20 -60 9 -25 19 -56
21 -70 3 -14 11 -47 19 -75 8 -27 17 -66 20 -85 3 -19 10 -48 15 -65 12 -40
31 -152 45 -270 3 -27 8 -61 10 -75 16 -88 25 -414 15 -495 -5 -33 -10 -84
-13 -113 l-6 -54 27 7 c15 4 34 13 43 21 8 8 21 14 27 14 7 0 20 4 30 9 9 5
31 14 47 21 35 14 75 31 127 54 20 9 43 16 51 16 9 0 18 4 21 9 3 5 17 12 30
15 14 3 38 11 53 18 15 6 33 12 38 14 6 1 48 16 95 34 47 17 93 33 103 35 9 2
21 6 26 9 15 10 293 94 381 116 47 11 96 25 110 30 27 10 51 15 150 30 120 18
164 21 332 25 92 3 178 1 190 -4 13 -5 49 -11 81 -15 32 -3 62 -8 67 -11 4 -2
31 -7 60 -11 39 -5 51 -3 45 5 -4 7 -9 27 -11 44 -3 18 -9 41 -13 52 -5 11
-18 61 -30 112 -12 50 -40 144 -61 210 -36 112 -45 137 -76 208 -7 17 -21 53
-32 80 -22 56 -112 232 -161 315 -64 110 -180 280 -190 280 -4 0 -15 15 -26
33 -10 17 -26 39 -34 47 -9 8 -37 40 -63 70 -74 90 -195 208 -341 335 -50 44
-170 137 -207 161 -24 16 -52 37 -62 47 -10 9 -23 17 -28 17 -6 0 -21 9 -33
21 -12 11 -57 41 -101 67 -43 26 -86 52 -95 57 -17 11 -110 63 -206 115 -33
18 -82 44 -110 58 -153 75 -278 133 -335 157 -36 15 -87 37 -115 50 -27 12
-61 26 -75 30 -14 4 -43 16 -65 26 -50 22 -367 138 -380 139 -12 0 -38 9 -93
31 -12 5 -64 20 -115 34 -51 14 -101 30 -112 35 -18 8 -134 41 -196 54 -13 4
-55 14 -94 25 -115 30 -123 32 -130 21z"/>
<path d="M8448 6125 c-2 -2 -34 -5 -73 -9 -38 -3 -88 -8 -110 -10 -22 -3 -74
-7 -115 -10 -41 -3 -75 -6 -75 -7 0 -2 -23 -5 -95 -13 -83 -9 -265 -35 -281
-40 -8 -3 -32 -8 -54 -11 -22 -3 -53 -8 -70 -10 -16 -3 -43 -7 -60 -10 -52 -7
-182 -30 -225 -40 -14 -3 -40 -8 -59 -10 -18 -3 -37 -8 -43 -11 -5 -3 -19 -7
-31 -9 -12 -1 -49 -8 -82 -15 -33 -8 -64 -13 -69 -11 -4 1 -14 -4 -22 -10 -8
-6 -14 -9 -14 -6 0 2 -33 -4 -72 -15 -40 -11 -82 -21 -93 -23 -71 -14 -163
-37 -180 -45 -16 -8 -136 -40 -240 -65 -11 -2 -58 -16 -105 -30 -47 -14 -109
-32 -137 -40 -29 -8 -81 -24 -115 -36 -35 -12 -70 -23 -78 -24 -8 -1 -22 -5
-30 -8 -26 -11 -299 -98 -305 -98 -2 0 -29 -11 -60 -24 -30 -14 -55 -22 -55
-19 0 4 -7 1 -15 -6 -8 -7 -15 -10 -15 -7 0 5 -33 -6 -95 -32 -11 -5 -63 -23
-115 -41 -52 -18 -108 -38 -125 -46 -16 -7 -62 -24 -102 -38 -40 -14 -80 -30
-90 -35 -10 -6 -49 -22 -88 -37 -38 -14 -92 -36 -120 -49 -27 -12 -75 -32
-105 -43 -30 -11 -77 -31 -105 -44 -27 -14 -98 -47 -157 -74 -59 -27 -108 -53
-108 -57 0 -7 84 -50 100 -52 3 0 66 -30 140 -67 118 -58 182 -88 200 -93 3 0
41 -13 86 -28 122 -41 219 -55 373 -52 75 2 146 5 158 8 11 3 42 9 67 12 25 4
46 12 46 17 0 5 -4 7 -9 3 -5 -3 -58 -6 -118 -7 -225 -3 -462 64 -700 198 -99
56 -99 56 30 98 45 15 93 33 107 41 14 7 48 20 75 28 28 8 64 21 80 28 17 6
35 13 40 14 21 5 451 147 470 155 11 5 65 22 120 38 55 16 117 37 138 45 20 9
37 14 37 12 0 -3 12 0 28 6 15 6 34 12 42 14 45 9 109 27 140 40 19 8 82 26
140 41 132 33 122 30 140 37 19 7 239 67 265 72 42 9 151 36 165 42 8 3 22 7
30 8 29 5 65 13 130 30 36 9 76 19 90 21 14 3 32 7 40 11 14 5 57 15 130 28
19 3 49 10 65 15 28 8 61 15 125 26 14 2 81 15 150 28 69 13 142 27 164 30 21
4 41 8 45 10 7 4 12 5 211 36 191 29 192 29 220 35 14 3 43 7 65 9 22 2 58 7
80 10 22 3 83 11 135 17 52 5 113 12 135 15 22 2 69 7 105 9 36 3 81 7 100 10
55 7 451 15 461 9 5 -3 4 -13 -1 -22 -5 -9 -20 -39 -33 -67 -74 -151 -160
-257 -287 -352 -56 -42 -205 -123 -227 -123 -6 0 -15 -5 -19 -11 -4 -8 1 -9
16 -4 12 4 30 9 39 10 9 2 17 4 19 5 1 2 5 3 10 4 139 31 316 157 418 298 29
39 124 217 124 232 0 3 13 33 29 66 35 72 36 72 -90 95 -46 9 -95 18 -109 21
-25 5 -537 13 -542 9z"/>
<path d="M10300 5817 c-14 -7 -63 -28 -110 -47 -97 -38 -140 -65 -140 -87 0
-8 8 -17 18 -20 12 -3 25 -23 35 -54 13 -43 13 -54 2 -76 -16 -31 -12 -41 21
-53 21 -8 25 -16 24 -45 0 -3 7 -19 15 -35 17 -33 60 -59 90 -54 21 3 86 16
95 19 85 28 160 80 146 103 -16 26 -58 22 -128 -13 -89 -44 -123 -46 -133 -7
-18 71 -20 68 55 103 38 17 76 40 85 49 15 16 15 19 0 34 -22 22 -32 21 -103
-14 -34 -16 -66 -30 -71 -30 -7 0 -31 66 -31 88 0 5 10 12 23 16 13 3 58 21
100 40 78 36 93 56 65 84 -15 15 -27 15 -58 -1z"/>
<path d="M9849 5631 c-14 -5 -36 -14 -49 -21 -13 -7 -38 -13 -54 -12 -23 1
-39 -8 -63 -34 -33 -37 -34 -59 -2 -69 10 -4 19 -13 19 -21 0 -9 10 -38 21
-65 16 -36 19 -53 11 -61 -14 -14 2 -48 22 -48 8 0 24 -25 36 -56 23 -56 47
-76 82 -66 24 6 33 40 15 60 -13 14 -47 86 -47 98 0 8 51 4 68 -5 37 -19 183
-61 212 -61 23 0 31 5 36 25 7 28 -11 56 -31 49 -7 -3 -52 7 -100 22 l-86 27
39 41 c74 77 84 136 31 181 -25 20 -41 25 -82 24 -29 0 -64 -4 -78 -8z m97
-68 c14 -33 7 -61 -20 -88 -19 -18 -107 -77 -110 -73 -11 12 -35 68 -40 95 -7
30 -5 32 46 56 64 31 113 34 124 10z"/>
<path d="M9470 5500 c-21 -21 -38 -57 -46 -95 -12 -59 -23 -144 -22 -174 1
-25 -5 -39 -20 -49 -29 -19 -28 -50 2 -63 15 -7 28 -26 37 -57 15 -49 32 -58
73 -39 18 9 19 36 2 102 -4 17 7 26 72 58 71 35 78 36 89 20 7 -9 13 -27 13
-40 0 -16 7 -24 27 -29 38 -10 58 7 57 48 -1 35 -101 222 -152 283 -47 57 -97
70 -132 35z m85 -107 c68 -108 67 -104 42 -122 -30 -21 -63 -40 -92 -51 l-24
-9 3 77 c2 70 22 152 36 152 3 0 19 -21 35 -47z"/>
<path d="M9189 5391 l-24 -19 28 -81 c16 -44 26 -84 23 -90 -7 -11 -46 -32
-113 -61 l-42 -19 -12 42 c-6 23 -13 56 -16 72 -2 17 -6 35 -8 41 -6 20 -44
23 -67 4 -22 -17 -22 -20 -9 -66 7 -27 14 -57 16 -66 2 -9 9 -26 15 -37 9 -17
8 -22 -4 -27 -10 -4 -14 -15 -12 -27 3 -12 5 -25 5 -29 1 -5 10 -8 20 -8 13 0
30 -18 51 -56 36 -62 50 -72 86 -56 32 15 30 31 -7 92 -17 28 -30 52 -28 54
30 21 154 75 159 69 4 -4 18 -34 31 -66 26 -66 46 -82 83 -67 33 12 33 25 -3
102 -54 120 -100 247 -101 280 0 10 -9 22 -19 28 -25 13 -25 13 -52 -9z"/>
<path d="M8714 5223 c-63 -21 -113 -70 -120 -118 -12 -82 56 -134 195 -149
139 -15 153 -31 66 -78 -49 -26 -86 -29 -109 -7 -20 18 -63 10 -74 -15 -9 -20
-7 -27 13 -46 19 -18 36 -23 82 -23 78 -1 188 52 215 104 39 75 -8 122 -132
133 -119 10 -170 36 -165 83 5 48 65 68 124 41 50 -22 81 -12 81 28 0 46 -101
73 -176 47z"/>
<path d="M8055 4976 c-17 -7 -43 -28 -58 -45 -45 -54 -33 -123 30 -172 l33
-26 -23 -34 c-33 -49 -36 -120 -5 -148 30 -29 58 -35 119 -27 53 7 108 36 148
78 22 23 31 25 91 22 77 -3 110 12 110 52 0 22 -3 24 -47 23 -84 -3 -86 -2
-80 28 7 39 -18 83 -47 83 -27 0 -40 -24 -27 -49 20 -36 -2 -43 -62 -21 -60
23 -66 32 -42 67 8 12 18 42 21 66 8 56 -14 93 -65 107 -46 13 -59 12 -96 -4z
m87 -79 c16 -26 -17 -98 -41 -90 -48 17 -65 61 -35 94 17 19 63 17 76 -4z m38
-217 c30 -11 56 -20 57 -20 2 0 3 -6 3 -13 0 -14 -33 -33 -82 -47 -21 -6 -33
-4 -50 10 l-22 18 19 36 c11 20 20 36 20 36 0 0 25 -9 55 -20z"/>
<path d="M7468 4749 c-23 -13 -23 -29 1 -82 18 -38 39 -101 45 -130 2 -7 7
-21 11 -32 4 -11 14 -36 22 -55 20 -49 51 -79 90 -86 42 -8 156 27 198 61 28
24 29 24 10 44 -24 27 -37 26 -85 -4 -55 -35 -97 -37 -121 -5 -17 22 -48 113
-81 235 -6 22 -15 46 -21 53 -11 14 -45 15 -69 1z"/>
<path d="M7335 4684 c-9 -10 -13 -23 -9 -33 3 -9 22 -59 40 -111 19 -52 40
-108 48 -125 8 -16 20 -47 27 -68 17 -48 32 -61 64 -53 45 11 47 35 9 111 -34
71 -81 200 -90 251 -3 15 -7 31 -10 36 -9 14 -62 9 -79 -8z"/>
<path d="M7137 4620 c-50 -39 -65 -90 -72 -233 -3 -58 -7 -71 -30 -92 -14 -14
-23 -30 -19 -36 3 -6 -7 -4 -24 5 -16 8 -65 18 -108 21 -43 4 -93 13 -110 20
-63 26 -68 86 -10 110 39 16 53 15 86 -8 34 -24 55 -21 69 9 19 41 -15 71 -91
80 -55 7 -161 -44 -183 -87 -23 -44 -16 -104 14 -133 40 -38 76 -49 201 -61
81 -8 101 -24 69 -54 -38 -35 -84 -45 -145 -31 -60 15 -87 3 -82 -34 5 -33 45
-47 119 -43 130 8 243 101 207 171 -9 16 -7 18 7 13 9 -4 21 -7 26 -7 5 0 9
-12 9 -28 0 -43 25 -72 57 -66 44 8 48 24 28 105 -5 22 2 27 67 59 40 19 76
36 80 38 7 3 23 -36 27 -68 0 -6 11 -14 23 -19 29 -11 68 13 68 42 0 21 -81
180 -132 257 -53 81 -106 105 -151 70z m93 -131 c21 -32 40 -66 42 -75 3 -15
-54 -54 -109 -75 -22 -8 -22 -8 -19 69 4 71 12 125 23 145 7 13 22 -2 63 -64z"/>
<path d="M6269 4256 c-4 -4 -276 -13 -634 -21 -110 -2 -281 -7 -380 -10 -99
-4 -232 -8 -295 -10 -63 -2 -160 -7 -215 -10 -55 -2 -158 -7 -230 -10 -146 -6
-273 -13 -355 -20 -30 -2 -109 -7 -175 -10 -66 -3 -138 -8 -160 -10 -22 -3
-71 -7 -110 -10 -38 -3 -77 -8 -85 -10 -8 -2 -53 -7 -100 -10 -47 -4 -107 -11
-135 -17 -27 -5 -61 -11 -75 -12 -14 -2 -34 -6 -45 -9 -11 -4 -40 -9 -64 -12
-23 -3 -47 -7 -51 -10 -5 -3 -28 -8 -52 -11 -92 -13 -284 -98 -334 -148 -48
-48 -38 -98 34 -164 50 -47 177 -123 282 -170 57 -25 237 -88 280 -97 8 -2 47
-11 85 -20 80 -19 71 -17 150 -34 33 -7 67 -17 76 -22 9 -4 30 -11 47 -14 18
-3 78 -17 134 -31 288 -72 571 -141 613 -150 24 -5 333 -80 390 -95 22 -6 101
-26 175 -44 74 -19 182 -46 240 -60 58 -15 114 -28 125 -31 11 -2 31 -6 45 -9
14 -3 35 -7 47 -9 63 -12 319 -80 328 -87 6 -4 24 -10 41 -13 26 -5 299 -91
469 -148 75 -25 235 -92 400 -168 173 -79 343 -211 434 -338 76 -103 74 -243
-5 -351 -71 -100 -150 -156 -357 -256 -154 -75 -232 -101 -482 -161 -77 -19
-165 -41 -195 -50 -30 -8 -68 -17 -85 -20 -16 -2 -41 -7 -53 -10 -13 -3 -43
-7 -65 -10 -23 -3 -58 -10 -77 -14 -45 -12 -120 -24 -205 -36 -27 -3 -52 -8
-55 -9 -3 -2 -26 -6 -50 -10 -78 -11 -224 -36 -230 -40 -3 -2 -33 -6 -65 -10
-33 -3 -67 -8 -75 -10 -8 -3 -51 -7 -95 -10 -44 -3 -87 -8 -95 -10 -8 -3 -49
-7 -90 -10 -41 -3 -100 -9 -130 -15 -30 -5 -93 -12 -140 -15 -47 -3 -96 -8
-110 -10 -14 -2 -72 -7 -129 -10 -57 -3 -107 -7 -110 -9 -3 -3 -60 -7 -126
-11 -65 -3 -121 -8 -124 -10 -6 -3 -76 -10 -211 -20 -36 -3 -90 -7 -120 -10
-30 -3 -102 -8 -160 -10 -58 -3 -143 -7 -190 -10 -47 -3 -139 -7 -205 -10 -66
-3 -160 -7 -210 -10 -49 -3 -139 -7 -200 -10 -182 -8 -317 -15 -370 -20 -27
-3 -124 -7 -215 -10 -91 -3 -196 -8 -235 -10 -38 -3 -135 -7 -215 -10 -80 -3
-183 -8 -230 -10 -47 -3 -134 -8 -195 -10 -123 -4 -272 -14 -325 -20 -19 -3
-102 -7 -185 -10 -82 -3 -170 -8 -195 -10 -25 -2 -115 -7 -200 -10 -168 -6
-241 -12 -249 -21 -6 -6 659 3 899 11 63 2 252 6 420 10 168 3 361 7 430 10
69 2 269 7 445 10 176 3 376 8 445 10 383 12 537 16 740 20 124 3 235 7 246 9
12 2 95 7 185 11 90 4 166 8 169 10 4 2 76 7 161 10 85 3 161 8 169 10 18 5
149 14 285 20 55 3 132 7 170 10 39 2 122 7 185 10 63 3 135 8 160 10 25 3
104 7 175 10 72 3 150 8 175 10 145 13 189 18 225 25 22 5 74 11 115 15 41 3
86 7 100 10 14 2 54 7 90 10 36 4 76 8 90 10 14 2 54 7 90 10 36 3 88 10 115
15 28 5 75 12 105 15 30 3 89 12 130 20 41 8 91 17 110 20 19 3 49 10 65 15
17 5 46 11 65 14 19 3 73 13 120 22 47 9 96 18 110 20 35 7 100 23 130 33 14
5 50 16 80 24 191 53 282 83 335 108 63 29 232 100 299 125 83 31 222 151 282
244 16 25 32 47 35 50 15 13 40 112 46 181 4 59 2 88 -13 130 -10 30 -17 57
-17 60 1 4 -9 17 -22 29 -14 13 -25 29 -25 36 0 7 -4 14 -8 16 -5 2 -28 28
-51 58 -48 62 -81 90 -161 142 -73 47 -210 128 -215 128 -3 0 -37 15 -77 34
-67 31 -226 99 -238 102 -3 0 -12 4 -20 7 -98 42 -514 175 -600 192 -15 3
-204 48 -450 107 -69 16 -136 32 -150 35 -14 2 -81 18 -150 35 -69 16 -134 31
-145 32 -11 2 -31 6 -43 10 -13 5 -34 9 -45 11 -39 5 -169 35 -178 41 -5 2
-21 7 -36 9 -16 2 -59 11 -98 20 -38 9 -79 19 -90 21 -21 3 -83 18 -145 34
-19 5 -51 12 -70 15 -19 3 -100 22 -180 41 -135 33 -174 42 -192 44 -4 1 -22
6 -40 11 -18 5 -44 11 -58 14 -14 2 -61 14 -105 25 -44 11 -92 23 -107 25 -41
6 -333 83 -381 101 -23 8 -50 17 -60 19 -43 10 -218 62 -290 87 -31 10 -68 21
-82 24 -63 11 -139 70 -133 102 6 33 206 90 373 106 33 3 69 8 80 10 11 2 54
7 95 11 41 3 91 8 110 10 19 2 78 7 130 10 52 4 102 8 110 10 41 7 144 17 215
20 277 11 428 16 645 21 135 3 265 7 290 9 89 7 517 7 608 1 50 -4 92 -5 92
-1 0 6 -29 80 -58 145 -17 41 -39 59 -53 46z"/>
<path d="M63 883 c9 -2 23 -2 30 0 6 3 -1 5 -18 5 -16 0 -22 -2 -12 -5z"/>
</g>
</svg>
